<svg id="screenshot" viewBox="263.8275083434706 271.99185494914093 174.06059058623373 45.98100569764881" width="174.06059058623373" height="45.98100569764881" version="1.1" xmlns="http://www.w3.org/2000/svg" xmlns:xlink="http://www.w3.org/1999/xlink" style="-webkit-print-color-adjust: exact;"><g id="shape-47fbc5b0-5ea5-11ec-be97-c9d200f57021"><g id="shape-47fbc5c0-5ea5-11ec-be97-c9d200f57021"><g id="shape-47fbc5b1-5ea5-11ec-be97-c9d200f57021"><g id="shape-47fbc5b2-5ea5-11ec-be97-c9d200f57021"><g id="shape-47fbc5a0-5ea5-11ec-be97-c9d200f57021"><path d="M307.8137090483618,291.06413244197734L307.8137090507208,317.11522350008704L293.0083372593254,317.1152234987533L293.00833725719787,293.6185079904992C293.0083372567813,289.02004207569007,290.78464068216323,285.01887529329804,285.73388452983687,285.01887529284306C280.7705937760971,285.01887529239593,278.63139767202557,289.02004207439495,278.6313976724421,293.6185079892041L278.63139767456966,317.1152234974582L263.8275083475565,317.1152234961246L263.82750834354766,272.84429667420744L278.63139767056083,272.84429667554105L278.63139767103127,278.0385869102942C281.19902598178265,274.4621661781927,285.391435256222,271.9918549510835,291.2975733574454,271.99185495161555C300.28278998182196,271.9933297650975,307.813709047136,277.52682691534864,307.8137090483618,291.06413244197734ZZ" style="fill: rgb(66, 87, 102); fill-opacity: 1;"/></g><g id="shape-47fbc5b3-5ea5-11ec-be97-c9d200f57021"><path d="M345.9767896540919,272.84429668160783L361.03862778371814,272.8442966829647L371.47962443449234,299.917432924493L381.8331556817769,272.84429668483796L396.89499381140405,272.84429668619475L378.32564495599246,317.1152235064391L364.54762098190287,317.11522350519795Z" style="fill: rgb(66, 87, 102); fill-opacity: 1;"/></g><g id="shape-47fbc5b4-5ea5-11ec-be97-c9d200f57021"><path d="M389.45302261156513,294.97976009648335C389.453022610162,279.48537815261375,400.5789178026769,271.9933297741317,410.50401684577247,271.9933297750258C418.2914022488165,271.9933297757273,422.483811523865,276.25111396342203,422.8262607963705,277.0165417408058L423.0827271346014,277.01654174082887L423.0827271342235,272.84429668855296L437.88809892561886,272.84429668988673L437.8880989296277,317.1152235118039L423.0827271382323,317.1152235104701L423.0827271378542,312.93855402017675L422.8262607996233,312.9385540201537C422.4838115272567,313.7054566101482,418.2914022529788,317.96176598441326,410.50401684993477,317.96176598371176C400.5715054849259,317.9661904208372,389.453022612968,310.47414204035215,389.45302261156513,294.97976009648335ZZM423.4266588730464,294.9797600995439C423.4266588724759,288.6793603599467,418.97926572363264,285.0188753048455,413.6720432330745,285.0188753043674C408.53678661092687,285.0188753039048,404.00192806416686,288.7648994932379,404.0019280647296,294.979760097794C404.00192806529236,301.1946207023483,408.53678661273085,304.94064489250036,413.67204323487846,304.94064489296295C418.97333586790506,304.94064489344055,423.4222114804691,301.287533902505,423.4266588730464,294.9797600995439ZZ" style="fill: rgb(66, 87, 102); fill-opacity: 1;"/></g><g id="shape-47fbc5c7-5ea5-11ec-be97-c9d200f57021"><path d="M330.0601538496673,271.9999999933936C318.5862580280514,271.9999999966909,306.7771990864945,279.91679442942876,306.77719908223406,294.98643032343665C306.77719907797365,310.05606621744556,318.5862580150537,317.9728606433961,330.0601538366696,317.97286064009876C341.45134707080086,317.9728606368252,353.26185693494494,310.0545913914145,353.261856939205,294.98643031007805C353.2618569434653,279.9182692287436,341.44554339344853,271.99999999012175,330.0601538496673,271.9999999933936ZZ" style="fill: rgb(66, 87, 102); fill-opacity: 1;"/></g></g></g></g><g id="shape-47fbc5a2-5ea5-11ec-be97-c9d200f57021"><g id="shape-47fbc5c5-5ea5-11ec-be97-c9d200f57021"><g id="shape-47fbc5b9-5ea5-11ec-be97-c9d200f57021"><g id="shape-47fbc5ba-5ea5-11ec-be97-c9d200f57021"><path class="cls-1" d="M323.95895249127875,292.340829157403L317.92207107674335,294.5030735527748L323.9589524916705,296.66531794923344L323.9589524920382,300.7270179765256L312.5000000006928,295.92305494661747L312.50000000043497,293.0784818287529L323.9589524909104,288.27298202450675Z" style="fill: rgb(143, 188, 187); fill-opacity: 1;"/></g><g id="shape-47fbc5b7-5ea5-11ec-be97-c9d200f57021"><path class="cls-1" d="M335.018053088964,282.1786352904726L337.16062077633086,282.17863529066557L329.93241945389315,298.23996201730046L325.5997148145195,307.86738960526344L323.4571471271517,307.8673896050704L335.018053088964,282.1786352904726Z" style="fill: rgb(143, 188, 187); fill-opacity: 1;"/></g><g id="shape-47fbc5ad-5ea5-11ec-be97-c9d200f57021"><path class="cls-1" d="M347.8886684574675,293.0784818319409L347.88866845772463,295.9184446206031L336.4297159672492,300.7224076484466L336.4297159668813,296.6607076211545L342.46659738141693,294.49846322578264L336.42971596648977,292.336218829325L336.4297159661219,288.2729820256302Z" style="fill: rgb(143, 188, 187); fill-opacity: 1;"/></g></g></g></g></g></svg>